<svg width="202" height="42" viewBox="0 0 202 42" fill="none" xmlns="http://www.w3.org/2000/svg"><path d="M19.192 40.584h-8.329L0 10.508h8.872l6.246 22.104h.09l6.428-22.104h8.42L19.192 40.584zM56.4 34.696c0 3.533.814 4.348 1.72 4.71v1.178h-8.6c-.453-1.45-.544-1.902-.725-3.533-1.81 1.902-4.345 4.348-9.777 4.348-4.526 0-9.143-2.536-9.143-8.787 0-5.888 3.711-8.878 8.78-9.602l7.153-1.088c1.267-.18 2.806-.724 2.806-2.355 0-3.352-3.168-3.533-5.25-3.533-3.984 0-4.618 2.446-4.89 4.167H30.78c.905-9.24 7.333-10.508 13.489-10.508 4.255 0 12.04 1.268 12.04 8.697v16.306h.09zm-7.786-8.787c-.815.634-2.082 1.087-5.341 1.63-2.988.544-5.432 1.268-5.432 4.53 0 2.808 2.173 3.623 3.712 3.623 3.53 0 7.061-2.265 7.061-5.888v-3.895zm20.46 14.675h-7.967V0h7.967v40.584zm15.118-30.076h4.889v5.617h-4.889V32.43c0 1.721.09 2.446 3.259 2.446.543 0 1.086-.09 1.63-.09v5.978c-1.268.09-2.535.09-3.712.09h-.996c-6.88 0-8.148-2.626-8.148-6.521v-18.21h-4.073v-5.616h4.073V2.355h7.967v8.153zm35.849 21.198c-2.082 7.247-8.147 9.603-13.307 9.603-8.51 0-15.028-4.077-15.028-16.397 0-3.624 1.267-15.219 14.485-15.219 5.974 0 14.213 2.808 14.213 16.578v1.45H99.672c.181 2.264.725 7.337 7.062 7.337 2.172 0 4.436-1.178 5.069-3.261h8.238v-.09zm-7.785-9.15c-.453-4.891-3.531-6.34-6.156-6.34-3.712 0-5.703 2.355-6.156 6.34h12.312zm37.932 7.067c-.272 3.08-2.716 11.776-13.761 11.776-11.316 0-13.941-8.606-13.941-14.947 0-9.693 4.255-16.668 14.484-16.668 4.798 0 12.584 2.174 13.308 11.504h-8.057c-.362-1.902-1.448-4.891-4.888-4.891h-.363c-4.979 0-6.337 4.982-6.337 8.696 0 3.262.091 9.784 6.156 9.784 4.074 0 5.432-3.805 5.432-5.254h7.967zm30.87 10.961h-7.967V22.285c0-2.174-.09-5.888-5.16-5.888-3.53 0-6.246 2.355-6.246 6.975v17.212h-7.967V0h7.967v14.404h.09c.996-2.446 4.436-4.71 8.691-4.71 5.885 0 10.502 3.441 10.502 10.054v20.836h.09zm20.822-5.707h-15.843v5.616h15.843v-5.616z" fill="#000"/></svg>