<svg width="24" height="24" viewBox="0 0 24 24" fill="none" xmlns="http://www.w3.org/2000/svg"><path d="M8.156 18.61c0 .124-.094.203-.281.234-.156 0-.234-.063-.234-.188s.078-.187.234-.187c.094 0 .156.015.188.047.062.03.093.062.093.093zm-1.453-.188c-.031.031-.031.078 0 .14l.188.094a.199.199 0 0 0 .187 0c.063-.031.094-.078.094-.14.031-.094-.031-.157-.188-.188-.156-.062-.25-.031-.28.094zm2.063-.094c-.157.031-.235.094-.235.188a.508.508 0 0 0 .094.187h.188c.156-.062.218-.14.187-.234 0-.094-.078-.14-.234-.14zM11.859.375c-2.156 0-4.109.5-5.859 1.5S2.875 4.25 1.875 6s-1.5 3.688-1.5 5.813c0 2.593.734 4.921 2.203 6.984 1.469 2.031 3.39 3.437 5.766 4.219.25.062.437.03.562-.094a.577.577 0 0 0 .235-.469l-.047-2.86-.516.048a4.973 4.973 0 0 1-1.172.047c-.531-.063-.984-.204-1.36-.422a1.897 1.897 0 0 1-.89-1.078l-.187-.375a3.04 3.04 0 0 0-.469-.75c-.219-.282-.438-.485-.656-.61l-.235-.187c-.156-.125-.234-.235-.234-.328.031-.126.219-.188.563-.188l.328.047c.25.094.484.203.703.328.312.219.562.5.75.844.437.781 1.062 1.203 1.875 1.265.5.063 1.015-.03 1.547-.28.093-.688.343-1.22.75-1.595-1.125-.125-1.97-.28-2.532-.468-.875-.313-1.53-.797-1.968-1.454-.5-.78-.75-1.874-.75-3.28 0-.595.078-1.079.234-1.454.188-.406.469-.844.844-1.312-.125-.282-.188-.641-.188-1.079A4.345 4.345 0 0 1 5.86 5.25c.282-.094.704-.031 1.266.188.406.156.86.375 1.36.656l.609.422A10.06 10.06 0 0 1 12 6.094c1.031 0 2.031.14 3 .422l.61-.422c.5-.282.937-.5 1.312-.657.562-.218 1-.28 1.312-.187.25.688.36 1.375.328 2.063a3.76 3.76 0 0 1-.234 1.125c.438.468.735.859.89 1.171.22.438.329.954.329 1.547 0 1.406-.266 2.516-.797 3.328-.469.625-1.14 1.094-2.016 1.407-.562.187-1.422.343-2.578.468.531.438.797 1.157.797 2.157v3.937c0 .188.063.344.188.469.156.125.359.156.609.094 2.344-.782 4.234-2.188 5.672-4.22 1.469-2.062 2.203-4.39 2.203-6.983 0-2.126-.531-4.079-1.594-5.86C21 4.234 19.578 2.875 17.766 1.875c-1.813-1-3.782-1.5-5.907-1.5zM4.922 16.547c-.063.062-.047.14.047.234.093.094.172.11.234.047.063-.062.047-.14-.047-.234-.093-.094-.172-.11-.234-.047zm-.516-.375c-.031.062 0 .125.094.187.125.063.203.063.234 0 .032-.093 0-.156-.093-.187-.094-.063-.172-.063-.235 0zm1.547 1.64c-.031.032-.047.079-.047.141 0 .063.032.125.094.188.125.125.234.14.328.047.031-.032.031-.079 0-.141 0-.063-.031-.11-.094-.14-.03-.063-.078-.095-.14-.095-.063-.03-.11-.03-.14 0zm-.562-.656c-.063.032-.063.125 0 .282a.52.52 0 0 1 .14.093c.063.032.11.032.14 0 .095-.062.095-.156 0-.281-.03-.063-.077-.094-.14-.094-.031-.031-.078-.031-.14 0z"/></svg>