<svg width="80" height="60" viewBox="0 0 80 60" fill="none" xmlns="http://www.w3.org/2000/svg"><mask id="a" fill="#fff"><path fill-rule="evenodd" clip-rule="evenodd" d="M5 2h70a3 3 0 0 1 3 3v37H2V5a3 3 0 0 1 3-3zm75 42V5a5 5 0 0 0-5-5H5a5 5 0 0 0-5 5v40a5 5 0 0 0 5 5h34v8H26a1 1 0 0 0 0 2h28a1 1 0 0 0 0-2H41v-8h34a5 5 0 0 0 5-5v-1zM2 45v-1h76v1a3 3 0 0 1-3 3H5a3 3 0 0 1-3-3zm38 2a1 1 0 1 0 0-2 1 1 0 0 0 0 2z"/></mask><path fill-rule="evenodd" clip-rule="evenodd" d="M5 2h70a3 3 0 0 1 3 3v37H2V5a3 3 0 0 1 3-3zm75 42V5a5 5 0 0 0-5-5H5a5 5 0 0 0-5 5v40a5 5 0 0 0 5 5h34v8H26a1 1 0 0 0 0 2h28a1 1 0 0 0 0-2H41v-8h34a5 5 0 0 0 5-5v-1zM2 45v-1h76v1a3 3 0 0 1-3 3H5a3 3 0 0 1-3-3zm38 2a1 1 0 1 0 0-2 1 1 0 0 0 0 2z" fill="#00C8FF"/><path d="M78 42v1h1v-1h-1zM2 42H1v1h1v-1zm37 8h1v-1h-1v1zm0 8v1h1v-1h-1zm2 0h-1v1h1v-1zm0-8v-1h-1v1h1zM2 44v-1H1v1h1zm76 0h1v-1h-1v1zM75 1H5v2h70V1zm4 4a4 4 0 0 0-4-4v2a2 2 0 0 1 2 2h2zm0 37V5h-2v37h2zM2 43h76v-2H2v2zM1 5v37h2V5H1zm4-4a4 4 0 0 0-4 4h2a2 2 0 0 1 2-2V1zm74 41v2h2v-2h-2zm0-37v37h2V5h-2zm-4-4a4 4 0 0 1 4 4h2a6 6 0 0 0-6-6v2zM5 1h70v-2H5v2zM1 5a4 4 0 0 1 4-4v-2a6 6 0 0 0-6 6h2zm0 37V5h-2v37h2zm0 2v-2h-2v2h2zm0 1v-1h-2v1h2zm4 4a4 4 0 0 1-4-4h-2a6 6 0 0 0 6 6v-2zm34 0H5v2h34v-2zm1 9v-8h-2v8h2zm-14 1h13v-2H26v2zm0 0v-2a2 2 0 0 0-2 2h2zm0 0h-2a2 2 0 0 0 2 2v-2zm28 0H26v2h28v-2zm0 0v2a2 2 0 0 0 2-2h-2zm0 0h2a2 2 0 0 0-2-2v2zm-13 0h13v-2H41v2zm-1-9v8h2v-8h-2zm35-1H41v2h34v-2zm4-4a4 4 0 0 1-4 4v2a6 6 0 0 0 6-6h-2zm0-1v1h2v-1h-2zM1 44v1h2v-1H1zm77-1H2v2h76v-2zm1 2v-1h-2v1h2zm-4 4a4 4 0 0 0 4-4h-2a2 2 0 0 1-2 2v2zM5 49h70v-2H5v2zm-4-4a4 4 0 0 0 4 4v-2a2 2 0 0 1-2-2H1zm39 1v2a2 2 0 0 0 2-2h-2zm0 0h2a2 2 0 0 0-2-2v2zm0 0v-2a2 2 0 0 0-2 2h2zm0 0h-2a2 2 0 0 0 2 2v-2z" fill="#00C8FF" mask="url(#a)"/></svg>